<svg width="150" height="150" viewBox="0 0 150 150" fill="none" xmlns="http://www.w3.org/2000/svg">
<path fill-rule="evenodd" clip-rule="evenodd" d="M124.188 77.6185L117.683 123.154L32.7332 124L25.4481 79.6481L14.1691 69.6563L14 61.7721L136 61.6029L135.245 71.5167L124.188 77.6185ZM57.919 85.0213C57.919 76.7078 47.0823 76.7468 47.1344 84.5009C47.1344 86.8818 47.2775 106.696 47.3035 108.882C47.3035 116.376 57.984 116.142 57.932 108.31C57.919 106.202 57.945 87.7795 57.919 85.0213ZM80.5419 85.0213C80.5419 76.7078 69.7053 76.7468 69.7573 84.5009C69.7573 86.8818 69.9004 106.696 69.9264 108.882C69.9264 116.376 80.607 116.142 80.5549 108.31C80.5419 106.202 80.5679 87.7795 80.5419 85.0213ZM103.165 85.0213C103.165 76.7078 92.3282 76.7468 92.3803 84.5009C92.3803 86.8818 92.5233 106.696 92.5494 108.882C92.5494 116.376 103.23 116.142 103.178 108.31C103.165 106.202 103.191 87.7795 103.165 85.0213ZM80.1777 37.7552C74.0373 31.6794 82.129 23.2358 88.0612 29.0774L114.08 54.8246L97.1676 54.7986L80.1777 37.7552ZM52.0518 54.8636H35.322C42.386 47.7861 59.6102 30.5996 60.9891 29.1945C67.0384 23.0536 75.5074 31.146 69.7183 37.0006L52.0518 54.8636Z" fill="black"/>
</svg>
