<svg width="150" height="150" viewBox="0 0 150 150" fill="none" xmlns="http://www.w3.org/2000/svg">
<path fill-rule="evenodd" clip-rule="evenodd" d="M117.487 73.1706L110.946 82.7886L103.506 81.8829L98.9702 71.1691L104.287 67.9812L111.545 8L120 8.32603L113.032 69.5118L117.487 73.1706ZM98.689 142C96.2923 141.767 93.9173 141.349 91.5853 140.75L92.4926 134.003L86.8858 139.283C85.2176 138.648 83.5931 137.904 82.023 137.055L87.0491 126.441L76.4798 133.414C71.4353 129.421 67.1646 124.541 63.8783 119.015C77.5413 115.99 93.0823 104.905 98.7797 93.8737L109.948 95.83C109.612 104.524 106.446 131.857 98.689 141.955V142ZM74.1391 100.34C73.5767 92.0353 71.6896 89.2006 63.47 88.7206L63.5426 86.9093C71.8348 86.5018 73.3226 83.7124 74.2208 76.6845L75.872 76.8294C76.4254 84.6995 78.5937 86.4112 86.033 86.9274L86.1963 88.6572C79.2106 89.3727 76.4163 92.0987 75.7631 100.358L74.1391 100.34ZM58.6254 82.4988C58.0629 74.194 56.1758 71.3593 47.9563 70.8702L48.0289 69.0589C56.321 68.6514 57.8089 65.862 58.707 58.8341L60.3582 58.97C60.9116 66.8491 63.0799 68.5608 70.5193 69.077L70.7189 70.7706C63.7331 71.4861 60.9388 74.2121 60.2856 82.4716L58.6254 82.4988ZM50.9955 90.9123C52.4925 102.686 54.9692 107.286 68.8046 107.975L68.9407 111.009C55.2232 111.824 52.0751 116.551 51.1316 130.408H48.4099C47.3121 116.633 42.6489 112.077 31 110.882L31.2631 108.002C43.6197 107.096 47.3121 104.28 48.2284 91.1477L50.9955 90.9123ZM100.748 84.7538L111.907 87.2625L110.873 91.6458L99.9863 89.9342L100.748 84.7538Z" fill="black"/>
</svg>
