<svg width="150" height="150" viewBox="0 0 150 150" fill="none" xmlns="http://www.w3.org/2000/svg">
<path fill-rule="evenodd" clip-rule="evenodd" d="M128.22 65.91L128.69 78.01L149.69 79.89L147.53 100.51L140.14 103.22C139.61 95.91 134.59 88.83 125.06 88.83C115.22 88.83 109.97 96.68 110.13 104.39H86.61C86.61 98.39 83.53 92.39 77.52 89.96L108.26 89.76L112.19 56.06L139.66 56.74L143.79 65.91H128.22ZM103.62 85.69L43.7 85.08C43.7 85.08 45.92 63.38 46.84 53.46C47.35 48 51.14 44.75 56.72 44.75C64.9 44.75 94.08 45.03 99.51 45.03C104.94 45.03 108.05 47.88 107.21 55.45C106 66.52 103.62 85.69 103.62 85.69ZM56.72 101.69L41.87 98.8L43 90.19L65.3 90C62.984 91.0389 60.9765 92.6598 59.4729 94.7049C57.9693 96.75 57.0209 99.1496 56.72 101.67V101.69ZM19.23 56.53L21 52.53L41.51 49.73L40.71 57.64L19.23 56.53ZM39.28 71.66L0.280029 70.53L1.42003 67.12L40.12 63.2L39.28 71.66ZM38.68 77.52L37.85 85.64L10.28 84.53L11.8 80.53L38.68 77.52ZM71.52 92.59C86.28 92.59 86.65 115.32 72.52 115.32C55.81 115.32 57 92.59 71.52 92.59ZM72 108.7C77.88 108.7 77.72 99.22 71.57 99.22C65.42 99.22 65 108.7 72 108.7ZM125.12 92.59C139.88 92.59 140.25 115.32 126.12 115.32C109.4 115.32 110.63 92.59 125.11 92.59H125.12ZM125.59 108.7C131.47 108.7 131.31 99.22 125.16 99.22C119.01 99.22 118.61 108.7 125.58 108.7H125.59Z" fill="black"/>
</svg>
