<svg width="150" height="150" viewBox="0 0 150 150" fill="none" xmlns="http://www.w3.org/2000/svg">
<path fill-rule="evenodd" clip-rule="evenodd" d="M123 116.979L121.586 122.761L28.2775 123L27 117.156L56.2147 106.776L57.4921 95.7C55.3966 92.6755 53.7826 89.3496 52.7068 85.8388C44.089 77.0156 45.377 65.5247 49.9215 65.151C49.9215 63.3137 49.8482 61.3934 49.8482 59.4004C49.8482 46.0722 58.4346 34 74.9791 34C91.5236 34 99.7958 45.6777 99.7958 61.4453C99.7958 62.7221 99.7958 63.9573 99.7958 65.151C104.571 64.7358 106.309 76.0399 98.2356 85.0499C97.4078 89.1002 95.7816 92.9487 93.4503 96.3747L95.2513 107.139L123 116.979ZM89.1571 111.789C88.9895 109.765 88.7278 105.198 88.5393 101.907C85.954 104.309 83.177 106.499 80.2356 108.457L71.3665 108.354C68.2697 106.377 65.3607 104.126 62.6754 101.627C62.4974 105.26 62.2251 110.616 62.1309 112.765C61.8272 119.772 89.7958 119.855 89.1571 111.8V111.789ZM94.288 58.9125C94.288 53.8195 92.247 48.935 88.6141 45.3337C84.9812 41.7323 80.0539 39.7091 74.9162 39.7091C69.7785 39.7091 64.8513 41.7323 61.2184 45.3337C57.5854 48.935 55.5445 53.8195 55.5445 58.9125C55.5445 83.8251 58.5602 92.6586 73.1466 102.032L78.0995 102.177C92.0471 92.7832 94.288 83.6486 94.288 58.9229V58.9125Z" fill="black"/>
</svg>
