<svg width="150" height="150" viewBox="0 0 150 150" fill="none" xmlns="http://www.w3.org/2000/svg">
<path fill-rule="evenodd" clip-rule="evenodd" d="M24.7462 134.515L24 12L126.098 13.7192L127 109.842L97.2783 138L24.7462 134.515ZM117.129 21.9747L32.3476 20.9679L33.8088 126.089L88.7442 129.326L89.6924 102.175L118.326 101.509L117.129 21.9747ZM63.2818 74.4811L108.797 74.605V86.0511L63.002 84.9979L63.2818 74.4811ZM63.888 54.5008H108.968V65.9004L63.717 64.2277L63.888 54.5008ZM64.4943 35.1555L108.968 35.9299V45.9975L64.23 44.9598L64.4943 35.1555ZM43.1668 44.4487L42.9647 34.7528L57.3903 35.0006L57.0949 44.7739L43.1668 44.4487ZM56.5042 63.9489L43.5554 63.4687L43.3688 54.5008H56.7996L56.5042 63.9489ZM55.8824 84.843L44.0062 84.5797L43.7886 74.4501H56.2244L55.8824 84.843Z" fill="black"/>
</svg>
