<svg width="32" height="32" viewBox="0 0 32 32" fill="none" xmlns="http://www.w3.org/2000/svg">
<path fill-rule="evenodd" clip-rule="evenodd" d="M23.2759 25.16C22.7954 25.2025 22.3279 25.3463 21.901 25.5831C21.4023 25.8769 20.9184 26.1979 20.4513 26.5448C19.4074 27.295 18.4249 28 16.9005 28C16.5522 27.9992 16.2047 27.9662 15.8619 27.9013C13.5926 27.4895 12.6582 26.2092 11.8573 25.0811C11.4713 24.482 10.9983 23.9509 10.4557 23.5074C10.0481 23.2936 9.62266 23.1198 9.18487 22.9885C6.74737 22.1424 2.21678 20.5434 3.11649 15.1568C3.77326 11.1831 5.37512 10.258 6.67796 9.52479C7.12403 9.31063 7.52589 9.00591 7.86067 8.62797C8.12955 8.22177 8.34845 7.7811 8.51209 7.31657C8.96061 6.18848 9.51859 4.81786 11.2886 4.21434C11.6785 4.07588 12.0867 4.00354 12.498 4C13.5499 4 14.3669 4.4879 15.1678 4.96169C15.7035 5.32767 16.2925 5.59825 16.9112 5.76263C17.3877 5.83661 17.8685 5.87524 18.3502 5.87826C19.8639 5.93467 21.7434 6.00799 23.0276 7.21786C23.8034 7.92723 24.3611 8.86501 24.6295 9.91116C24.7929 10.573 25.1094 11.1816 25.5505 11.6823C25.7571 11.9029 25.9746 12.1119 26.2019 12.3083C27.4888 13.4534 28.9491 14.7535 27.1844 20.1711C25.7294 24.5791 24.7523 24.9401 23.2759 25.16ZM25.0005 13.3857C24.7465 13.1679 24.5049 12.9343 24.277 12.6863C23.7353 12.0747 23.3423 11.3334 23.1317 10.526C22.9344 9.72692 22.5094 9.01121 21.9143 8.47568C21.0012 7.61269 19.5115 7.55629 18.1766 7.50552C17.6536 7.50125 17.1315 7.45601 16.6148 7.37015C15.893 7.19114 15.2051 6.88408 14.5805 6.46204C13.8863 6.05593 13.3016 5.70341 12.6048 5.70341C12.3324 5.70437 12.0619 5.75199 11.8039 5.84442C10.6132 6.26181 10.2608 7.13325 9.85498 8.14007C9.65549 8.69116 9.38605 9.21108 9.05405 9.68555C8.63909 10.1852 8.12985 10.5877 7.55898 10.8672C6.43768 11.513 5.28167 12.1814 4.74238 15.4021C4.10698 19.1953 6.87819 20.5067 9.77756 21.522C10.3106 21.6739 10.8237 21.8956 11.3047 22.1819C11.9248 22.6802 12.4656 23.28 12.9065 23.9586C13.6541 24.9937 14.2975 25.8877 16.0195 26.2007C16.2839 26.2498 16.5519 26.2752 16.8204 26.2769C17.9203 26.2769 18.6118 25.7805 19.5676 25.0952C20.0601 24.7376 20.5698 24.4072 21.0947 24.1053C21.6286 23.8068 22.2127 23.6218 22.814 23.561C23.7591 23.42 24.3838 23.3269 25.6012 19.5789C27.0189 15.1821 26.0845 14.3502 25.0005 13.3857ZM16.9299 20.2924C9.65208 20.2924 9.77221 9.6517 16.791 9.6517C23.5188 9.6517 23.5322 20.2924 16.9299 20.2924Z" fill="url(#paint0_linear_8_4)"/>
<defs>
<linearGradient id="paint0_linear_8_4" x1="24.4399" y1="25.0754" x2="6.74147" y2="8.32116" gradientUnits="userSpaceOnUse">
<stop stop-color="#FF1E00"/>
<stop offset="1" stop-color="#FFB400"/>
</linearGradient>
</defs>
</svg>
