<svg width="150" height="150" viewBox="0 0 150 150" fill="none" xmlns="http://www.w3.org/2000/svg">
<path fill-rule="evenodd" clip-rule="evenodd" d="M103.596 61.6664C102.731 61.6664 101.9 61.6664 101.09 61.5554L104.272 55.6267C122.909 54.6941 122.743 25.0508 103.031 25.0508C99.5089 24.9112 96.0548 26.0462 93.3002 28.2481C90.5456 30.4499 88.6749 33.5714 88.0303 37.0414L106.623 36.9303L108.43 40.4276L72.3093 92.2202L73.6619 117.756C100.98 119.21 99.0949 132 68.9722 132C36.0335 132 35.5346 119.232 63.0186 117.756L64.2049 92.4422L26 41.3713L28.5056 37.2967L81.9659 37.0192C83.3961 27.571 90.5803 19 103.119 19C130.969 19.0555 130.792 61.6664 103.596 61.6664ZM35.0246 43.4696C35.0246 43.4696 57.6748 73.4461 60.5241 77.3541C63.3734 81.2621 73.2406 80.9402 75.9236 77.3541C78.3738 74.0234 99.2057 42.9367 99.2057 42.9367L35.0246 43.4696ZM73.6286 72.8021C71.4113 76.1328 64.9477 76.2217 61.9986 72.2692C59.6815 69.1605 46.3442 51.1747 46.3442 51.1747C64.3158 42.8035 68.2294 59.2461 87.4871 51.9741C87.4871 51.9297 75.3582 70.2375 73.6286 72.8021Z" fill="black"/>
</svg>
