<svg width="32" height="32" viewBox="0 0 32 32" fill="none" xmlns="http://www.w3.org/2000/svg">
<path fill-rule="evenodd" clip-rule="evenodd" d="M29.187 14.8278L27.9601 10.7172C26.4985 11.0508 25.0368 10.3497 24.3131 8.87109C19.2243 10.2451 12.6683 9.24144 8.1986 11.6388C8.40155 12.3807 8.38103 13.1659 8.13964 13.8961C7.89824 14.6263 7.4467 15.2691 6.84159 15.7438L7.97244 19.5575C9.64608 19.1222 10.6356 20.0721 11.1755 21.333C12.7294 20.7979 14.3328 20.4191 15.9618 20.2021C12.9199 18.045 12.6937 11.537 17.4206 11.0847C21.0959 10.7342 22.5094 13.9542 22.5094 16.6174C20.1601 17.3722 19.1169 19.8911 19.6484 22.0426C15.6311 22.2631 11.478 22.5119 7.52575 25.3983L3.85052 12.5378C9.45101 6.25885 15.1929 9.5609 23.5611 6.94866L23.1964 5.64819C16.3265 8.11343 7.33916 4.67284 2.16556 12.1505L5.27538 22.591L3.57911 23.6512L0 11.3787C7.35047 1.32555 17.1945 6.94018 24.3131 2.81543L25.4015 6.2956C26.3852 5.89333 27.3434 5.43166 28.271 4.91314L32 17.8952C30.8994 19.0308 29.5888 19.942 28.141 20.5781C27.2505 18.749 27.6123 15.7607 29.187 14.8278ZM18.5204 23.7219C21.9525 23.7219 22.0401 29.1273 18.7578 29.1273C14.8677 29.1273 15.1533 23.7219 18.5204 23.7219ZM23.8919 17.9348C27.7339 17.9348 27.83 23.9848 24.1576 23.9848C19.7897 23.9848 20.112 17.9348 23.8806 17.9348H23.8919Z" fill="black"/>
</svg>
