<svg width="150" height="150" viewBox="0 0 150 150" fill="none" xmlns="http://www.w3.org/2000/svg">
<path fill-rule="evenodd" clip-rule="evenodd" d="M86.0088 79.9464C86.3586 39.8322 89.2919 14 109.112 14L109.596 79.9464H86.0088ZM65.8255 73.7403C65.8255 78.7927 67.4805 117.329 68.0053 128.879C68.53 140.429 48.266 139.196 48.9253 128.03C49.5846 116.865 51.4011 78.965 51.4011 73.7933C51.4011 68.6216 41 63.5029 41 63.5029L45.3327 14.6763L50.3651 14.8354L49.5174 49.3137L54.765 49.4065L56.272 14.7426L61.6543 15.1007L62.2328 49.5789L67.3325 49.6718L66.8212 15.3659L72.8223 15.5515L75.7422 64.272C75.7422 64.272 65.7986 68.7409 65.7986 73.7403H65.8255ZM86.0088 90.7407V85.9801H109.691L110 128.826C109.341 140.761 91.1622 138.891 91.8216 127.977V124.768L95.5622 121.002C95.5622 121.002 95.764 105.659 95.764 102.158C95.8261 99.405 94.8644 96.7243 93.0602 94.6213C91.2559 92.5183 88.7336 91.1381 85.9684 90.7407H86.0088Z" fill="black"/>
</svg>
